<svg xmlns="http://www.w3.org/2000/svg" version="1.1" xmlns:xlink="http://www.w3.org/1999/xlink" xmlns:svgjs="http://svgjs.dev/svgjs" width="1500" height="1500" viewBox="0 0 1500 1500"><rect width="1500" height="1500" fill="#ffffff"></rect><g transform="matrix(0.6666666666666666,0,0,0.6666666666666666,249.39393939393938,435.99032258064517)"><svg viewBox="0 0 396 248" data-background-color="#161717" preserveAspectRatio="xMidYMid meet" height="939" width="1500" xmlns="http://www.w3.org/2000/svg" xmlns:xlink="http://www.w3.org/1999/xlink"><g id="tight-bounds" transform="matrix(1,0,0,1,0.2400000000000091,0.4000000000000057)"><svg viewBox="0 0 395.52 247.2" height="247.2" width="395.52"><g><svg></svg></g><g><svg viewBox="0 0 395.52 247.2" height="247.2" width="395.52"><mask id="a2524437-6c58-4476-a63c-602b8fafb96e"><rect width="395.52" height="247.2" fill="white"></rect><g transform="matrix(1,0,0,1,1.2483974807557559,37.08)" id="clone"><svg viewBox="0 0 393.02320503848847 173.04" height="173.04" width="393.02320503848847"><g><svg viewBox="0 0 393.02320503848847 173.04" height="173.04" width="393.02320503848847"><g><svg viewBox="0 0 393.02320503848847 173.04" height="173.04" width="393.02320503848847"><g><svg viewBox="0 0 393.02320503848847 173.04" height="173.04" width="393.02320503848847"><g id="SvgjsG1295"><svg viewBox="0 0 393.02320503848847 173.04" height="173.04" width="393.02320503848847" id="SvgjsSvg1294"><g><svg viewBox="0 0 393.02320503848847 173.04" height="173.04" width="393.02320503848847"><g transform="matrix(1,0,0,1,0,0)"><svg width="393.02320503848847" viewBox="0.9100000000000001 -39.25 96.08 42.86" height="173.04" data-palette-color="#ffdb99"><path d="M27.71 0L4.88-33.08 8.3-35.64 31.13-2.44 27.71 0ZM31.74 0L27.71 0 27.71-35.64 32.1-35.64Q31.86-34.18 31.8-31.41 31.74-28.64 31.74-25.02L31.74-25.02 31.74 0ZM3.91-35.64L8.3-35.64 8.3 0 3.91 0Q4.17-1.46 4.22-4.24 4.27-7.01 4.27-10.62L4.27-10.62 4.27-25.02Q4.27-28.64 4.22-31.41 4.17-34.18 3.91-35.64L3.91-35.64ZM45.53-31.98L45.53-31.98 45.53-20.87 50.29-20.87Q54.22-20.87 56.04-22.47 57.86-24.07 57.86-26.61L57.86-26.61Q57.86-29.35 56.28-30.73 54.71-32.1 51.02-32.1L51.02-32.1Q49.61-32.1 47.96-32.07 46.31-32.03 45.53-31.98ZM40.89-11.11L40.89-11.11 40.89-24.41Q40.89-28 40.84-31.09 40.79-34.18 40.52-35.64L40.52-35.64Q42.14-35.77 45.15-35.83 48.17-35.89 51.27-35.89L51.27-35.89Q56.71-35.89 59.67-34.01 62.62-32.13 62.62-27.34L62.62-27.34Q62.62-24.27 60.87-22.38 59.13-20.48 56.64-19.53L56.64-19.53Q58.52-19.04 60.31-18.03 62.11-17.02 63.28-15.16 64.45-13.31 64.45-10.25L64.45-10.25Q64.45-7.3 63.13-4.92 61.81-2.54 58.95-1.15 56.08 0.24 51.39 0.24L51.39 0.24Q48.92 0.24 46.68 0.21 44.43 0.17 42.81 0.11 41.18 0.05 40.52 0L40.52 0Q40.79-1.46 40.84-4.48 40.89-7.5 40.89-11.11ZM51.27-17.09L45.53-17.09 45.53-3.78Q46.21-3.76 47.84-3.71 49.46-3.66 51.51-3.66L51.51-3.66Q53.61-3.66 55.48-4.25 57.35-4.83 58.52-6.27 59.69-7.71 59.69-10.25L59.69-10.25Q59.69-17.09 51.27-17.09L51.27-17.09ZM92.4-34.06L92.4-34.06 91.43-29.3Q88.81-30.74 86.84-31.36 84.86-31.98 82.51-31.98L82.51-31.98Q80.56-31.98 79.07-31.23 77.58-30.47 76.75-29.27 75.92-28.08 75.92-26.73L75.92-26.73Q75.92-25.39 76.48-24.37 77.05-23.34 78.78-22.44 80.51-21.53 83.98-20.51L83.98-20.51Q88.84-19.09 91.41-16.71 93.99-14.33 93.99-10.38L93.99-10.38Q93.99-7.1 92.33-4.63 90.67-2.15 87.9-0.77 85.13 0.61 81.78 0.61L81.78 0.61Q78.24 0.61 75.21-0.32 72.19-1.25 70.31-2.69L70.31-2.69 71.41-7.69Q73.82-5.59 76.45-4.63 79.07-3.66 81.78-3.66L81.78-3.66Q83.76-3.66 85.48-4.39 87.2-5.13 88.28-6.52 89.35-7.91 89.35-9.89L89.35-9.89Q89.35-11.18 88.74-12.3 88.13-13.43 86.25-14.5 84.37-15.58 80.56-16.72L80.56-16.72Q76.75-17.87 74.75-19.31 72.75-20.75 72.02-22.52 71.28-24.29 71.28-26.37L71.28-26.37Q71.28-27.93 71.94-29.65 72.6-31.37 73.98-32.87 75.36-34.38 77.55-35.31 79.73-36.25 82.76-36.25L82.76-36.25Q85.59-36.25 87.81-35.73 90.03-35.21 92.4-34.06Z" opacity="1" transform="matrix(1,0,0,1,0,0)" fill="black" class="wordmark-text-0" id="SvgjsPath1293" stroke-width="5" stroke="black" stroke-linejoin="round"></path></svg></g></svg></g></svg></g></svg></g></svg></g></svg></g></svg></g></mask><g mask="url(#a2524437-6c58-4476-a63c-602b8fafb96e)"><g><path d="M265.066 247.184l-158.33-229.414 23.718-17.754 158.33 230.247zM293.014 247.184h-27.948v-247.168h30.445c-1.11 6.75-1.803 16.529-2.081 29.335-0.277 12.807-0.416 27.579-0.416 44.316v0zM100.009 0.016h30.445v247.168h-30.445c1.202-6.75 1.919-16.552 2.15-29.405 0.231-12.807 0.347-27.556 0.347-44.246v0-99.866c0-16.737-0.116-31.509-0.347-44.316-0.231-12.807-0.948-22.585-2.15-29.335z" fill="#000000" fill-rule="nonzero" stroke="none" stroke-width="1" stroke-linecap="butt" stroke-linejoin="miter" stroke-miterlimit="10" stroke-dasharray="" stroke-dashoffset="0" font-family="none" font-weight="none" font-size="none" text-anchor="none" style="mix-blend-mode: normal" data-fill-palette-color="tertiary"></path></g></g><g transform="matrix(1,0,0,1,1.2483974807557559,37.08)"><svg viewBox="0 0 393.02320503848847 173.04" height="173.04" width="393.02320503848847"><g><svg viewBox="0 0 393.02320503848847 173.04" height="173.04" width="393.02320503848847"><g><svg viewBox="0 0 393.02320503848847 173.04" height="173.04" width="393.02320503848847"><g><svg viewBox="0 0 393.02320503848847 173.04" height="173.04" width="393.02320503848847"><g id="textblocktransform"><svg viewBox="0 0 393.02320503848847 173.04" height="173.04" width="393.02320503848847" id="textblock"><g><svg viewBox="0 0 393.02320503848847 173.04" height="173.04" width="393.02320503848847"><g transform="matrix(1,0,0,1,0,0)"><svg width="393.02320503848847" viewBox="0.9100000000000001 -39.25 96.08 42.86" height="173.04" data-palette-color="#ffdb99"><path d="M27.71 0L4.88-33.08 8.3-35.64 31.13-2.44 27.71 0ZM31.74 0L27.71 0 27.71-35.64 32.1-35.64Q31.86-34.18 31.8-31.41 31.74-28.64 31.74-25.02L31.74-25.02 31.74 0ZM3.91-35.64L8.3-35.64 8.3 0 3.91 0Q4.17-1.46 4.22-4.24 4.27-7.01 4.27-10.62L4.27-10.62 4.27-25.02Q4.27-28.64 4.22-31.41 4.17-34.18 3.91-35.64L3.91-35.64ZM45.53-31.98L45.53-31.98 45.53-20.87 50.29-20.87Q54.22-20.87 56.04-22.47 57.86-24.07 57.86-26.61L57.86-26.61Q57.86-29.35 56.28-30.73 54.71-32.1 51.02-32.1L51.02-32.1Q49.61-32.1 47.96-32.07 46.31-32.03 45.53-31.98ZM40.89-11.11L40.89-11.11 40.89-24.41Q40.89-28 40.84-31.09 40.79-34.18 40.52-35.64L40.52-35.64Q42.14-35.77 45.15-35.83 48.17-35.89 51.27-35.89L51.27-35.89Q56.71-35.89 59.67-34.01 62.62-32.13 62.62-27.34L62.62-27.34Q62.62-24.27 60.87-22.38 59.13-20.48 56.64-19.53L56.64-19.53Q58.52-19.04 60.31-18.03 62.11-17.02 63.28-15.16 64.45-13.31 64.45-10.25L64.45-10.25Q64.45-7.3 63.13-4.92 61.81-2.54 58.95-1.15 56.08 0.24 51.39 0.24L51.39 0.24Q48.92 0.24 46.68 0.21 44.43 0.17 42.81 0.11 41.18 0.05 40.52 0L40.52 0Q40.79-1.46 40.84-4.48 40.89-7.5 40.89-11.11ZM51.27-17.09L45.53-17.09 45.53-3.78Q46.21-3.76 47.84-3.71 49.46-3.66 51.51-3.66L51.51-3.66Q53.61-3.66 55.48-4.25 57.35-4.83 58.52-6.27 59.69-7.71 59.69-10.25L59.69-10.25Q59.69-17.09 51.27-17.09L51.27-17.09ZM92.4-34.06L92.4-34.06 91.43-29.3Q88.81-30.74 86.84-31.36 84.86-31.98 82.51-31.98L82.51-31.98Q80.56-31.98 79.07-31.23 77.58-30.47 76.75-29.27 75.92-28.08 75.92-26.73L75.92-26.73Q75.92-25.39 76.48-24.37 77.05-23.34 78.78-22.44 80.51-21.53 83.98-20.51L83.98-20.51Q88.84-19.09 91.41-16.71 93.99-14.33 93.99-10.38L93.99-10.38Q93.99-7.1 92.33-4.63 90.67-2.15 87.9-0.77 85.13 0.61 81.78 0.61L81.78 0.61Q78.24 0.61 75.21-0.32 72.19-1.25 70.31-2.69L70.31-2.69 71.41-7.69Q73.82-5.59 76.45-4.63 79.07-3.66 81.78-3.66L81.78-3.66Q83.76-3.66 85.48-4.39 87.2-5.13 88.28-6.52 89.35-7.91 89.35-9.89L89.35-9.89Q89.35-11.18 88.74-12.3 88.13-13.43 86.25-14.5 84.37-15.58 80.56-16.72L80.56-16.72Q76.75-17.87 74.75-19.31 72.75-20.75 72.02-22.52 71.28-24.29 71.28-26.37L71.28-26.37Q71.28-27.93 71.94-29.65 72.6-31.37 73.98-32.87 75.36-34.38 77.55-35.31 79.73-36.25 82.76-36.25L82.76-36.25Q85.59-36.25 87.81-35.73 90.03-35.21 92.4-34.06Z" opacity="1" transform="matrix(1,0,0,1,0,0)" fill="#000000" class="wordmark-text-0" data-fill-palette-color="primary" id="text-0"></path></svg></g></svg></g></svg></g></svg></g></svg></g></svg></g></svg></g></svg></g><defs></defs></svg><rect width="395.52" height="247.2" fill="none" stroke="none" visibility="hidden"></rect></g></svg></g></svg>